<svg xmlns="http://www.w3.org/2000/svg" xmlns:xlink="http://www.w3.org/1999/xlink" width="844" height="844" viewBox="0 0 844 844">
  <defs>
    <linearGradient id="tinkerun-c" x1="50%" x2="50%" y1="0%" y2="168.238%">
      <stop offset="0%" stop-color="#FFF"/>
      <stop offset="48.952%" stop-color="#EFEFEF"/>
      <stop offset="100%" stop-color="silver"/>
    </linearGradient>
    <path id="tinkerun-a" d="M824,256.627066 C824,246.845101 824,237.062137 823.943901,227.279173 C823.894902,219.038203 823.799902,210.799233 823.575904,202.562263 C823.091908,184.609328 822.032915,166.502394 818.839939,148.749458 C815.601963,130.740524 810.314002,113.979585 801.981064,97.6166446 C793.789124,81.5337032 783.088204,66.8167567 770.320298,54.0578032 C757.555393,41.2988496 742.834502,30.6048886 726.745621,22.4179184 C710.365742,14.0829487 693.586866,8.79696797 675.558,5.55997976 C657.803131,2.37199136 639.691265,1.31499521 621.738398,0.829996978 C613.495459,0.60699779 605.25252,0.512998132 597.007581,0.461998318 C587.219653,0.401998536 577.431726,0.406998518 567.643798,0.406998518 L453.99664,0 L368.997269,0 L257.361095,0.406998518 C247.554168,0.406998518 237.74724,0.401998536 227.940313,0.461998318 C219.678374,0.512998132 211.420435,0.60699779 203.161496,0.829996978 C185.166629,1.31499521 167.013764,2.37299136 149.216896,5.56497974 C131.164029,8.80096796 114.360154,14.0849487 97.9582749,22.4139184 C81.8353943,30.6018886 67.0825035,41.2968496 54.2905981,54.0578032 C41.5006928,66.8157567 30.7797722,81.5297032 22.5728329,97.6096446 C14.2168948,113.980585 8.91893398,130.751524 5.67295801,148.770458 C2.47698167,166.516394 1.4179895,184.617328 0.930993109,202.562263 C0.708994752,210.800233 0.612995463,219.039203 0.562995833,227.279173 C0.502996277,237.063137 0,249.216093 0,258.999057 L0,369.088656 L0,454.998343 L0.50799624,567.426934 C0.50799624,577.222898 0.503996269,587.018863 0.562995833,596.814827 C0.612995463,605.066797 0.708994752,613.316767 0.931993101,621.565737 C1.4179895,639.541672 2.47898165,657.674606 5.67795797,675.451541 C8.92293395,693.484475 14.2198947,710.269414 22.5688329,726.653354 C30.7767722,742.759296 41.4996928,757.495242 54.2905981,770.272196 C67.0815035,783.049149 81.8303943,793.75711 97.950275,801.95608 C114.362153,810.30205 131.174029,815.595031 149.237895,818.836019 C167.026764,822.029007 185.173629,823.088003 203.161496,823.573002 C211.420435,823.796001 219.679374,823.891 227.941313,823.941 C237.74824,824 247.554168,824 257.361095,824 L370.006261,824 L455.216631,824 L567.643798,824 C577.431726,824 587.219653,824 597.007581,823.941 C605.25252,823.891 613.495459,823.796001 621.738398,823.573002 C639.698265,823.087003 657.816131,822.027007 675.578999,818.832019 C693.596866,815.591031 710.367742,810.30005 726.738621,801.95908 C742.830502,793.76111 757.554393,783.051149 770.320298,770.272196 C783.086204,757.497242 793.786124,742.763296 801.978064,726.660354 C810.316002,710.268414 815.603963,693.475475 818.843939,675.430541 C822.033915,657.660606 823.091908,639.534672 823.576904,621.565737 C823.799902,613.315767 823.894902,605.065797 823.943901,596.814827 C824,587.018863 824,577.222898 824,567.426934 C824,567.426934 824,456.983336 824,454.998343 L824,368.998657 C824,367.532662 824,256.627066 824,256.627066"/>
    <filter id="tinkerun-b" width="104.9%" height="104.9%" x="-2.4%" y="-1.2%" filterUnits="objectBoundingBox">
      <feOffset dy="10" in="SourceAlpha" result="shadowOffsetOuter1"/>
      <feGaussianBlur in="shadowOffsetOuter1" result="shadowBlurOuter1" stdDeviation="5"/>
      <feColorMatrix in="shadowBlurOuter1" values="0 0 0 0 0   0 0 0 0 0   0 0 0 0 0  0 0 0 0.3 0"/>
    </filter>
    <linearGradient id="tinkerun-e" x1="50%" x2="50%" y1="104.686%" y2="10.73%">
      <stop offset="0%" stop-color="#F6F3F3"/>
      <stop offset="100%" stop-color="#FFF"/>
    </linearGradient>
    <linearGradient id="tinkerun-f" x1="0%" x2="100%" y1="50%" y2="50%">
      <stop offset="0%" stop-color="#F08346"/>
      <stop offset="100%" stop-color="#E96969"/>
    </linearGradient>
    <path id="tinkerun-g" d="M537.843086,247.947132 C531.570202,218.774363 520.091337,191.536163 504.409126,167.267299 L535.934226,135.735771 L463.159769,63.0191589 L431.660377,94.5185503 C407.391513,78.8363393 380.153313,67.3574759 350.980544,61.0845915 L350.980544,16.538114 L248.101383,16.538114 L248.101383,61.0845915 C218.922188,67.3574759 191.683988,78.8363393 167.415123,94.5185503 L135.915732,63.0191589 L63.1412749,135.735771 L94.6663748,167.267299 C78.9841638,191.536163 67.5052988,218.774363 61.2324144,247.947132 L16.5638225,247.947132 L16.5059787,350.826293 L61.2324144,350.826293 C67.4988721,380.005489 78.9777371,407.24369 94.6663748,431.512554 L63.0191589,463.159769 L135.742199,535.934226 L167.415123,504.261301 C191.683988,519.949941 218.922188,531.428804 248.101383,537.695262 L248.101383,582.537387 L350.980544,582.537387 L350.980544,537.695262 C380.153313,531.428804 407.391513,519.949941 431.666806,504.261301 L463.33973,535.934226 L536.056342,463.159769 L504.409126,431.512554 C520.097764,407.24369 531.576629,380.005489 537.843086,350.826293 L582.569522,350.826293 L582.569522,247.947132 L537.843086,247.947132 Z M299.53775,419.037483 C233.537495,419.037483 180.038018,365.538006 180.038018,299.53775 C180.038018,233.537495 233.537495,180.038018 299.53775,180.038018 C365.538006,180.038018 419.037483,233.537495 419.037483,299.53775 C419.037483,365.538006 365.538006,419.037483 299.53775,419.037483 Z"/>
    <filter id="tinkerun-h" width="107.1%" height="107.1%" x="-3.5%" y="-3.5%" filterUnits="objectBoundingBox">
      <feGaussianBlur in="SourceAlpha" result="shadowBlurInner1" stdDeviation="15"/>
      <feOffset dx="10" dy="10" in="shadowBlurInner1" result="shadowOffsetInner1"/>
      <feComposite in="shadowOffsetInner1" in2="SourceAlpha" k2="-1" k3="1" operator="arithmetic" result="shadowInnerInner1"/>
      <feColorMatrix in="shadowInnerInner1" values="0 0 0 0 0.494327269   0 0 0 0 0.494327269   0 0 0 0 0.494327269  0 0 0 1 0"/>
    </filter>
  </defs>
  <g fill="none" fill-rule="evenodd" transform="translate(10)">
    <mask id="tinkerun-d" fill="#fff">
      <use xlink:href="#tinkerun-a"/>
    </mask>
    <use fill="#000" filter="url(#tinkerun-b)" xlink:href="#tinkerun-a"/>
    <use fill="url(#tinkerun-c)" xlink:href="#tinkerun-a"/>
    <g mask="url(#tinkerun-d)">
      <g transform="translate(-58 -62)">
        <rect width="914" height="914" fill="url(#tinkerun-e)"/>
        <rect width="824" height="824" x="58" y="62" rx="126"/>
      </g>
    </g>
    <g mask="url(#tinkerun-d)">
      <g transform="translate(-28 -26)">
        <rect width="880" height="880" fill="url(#tinkerun-f)"/>
        <g fill-rule="nonzero" transform="translate(140 140)">
          <use fill="#FFF" xlink:href="#tinkerun-g"/>
          <use fill="#000" filter="url(#tinkerun-h)" xlink:href="#tinkerun-g"/>
          <g transform="translate(.059 .085)">
            <path d="M231.582587,582.45274 C231.582587,591.540711 238.954512,598.906207 248.036054,598.906207 L350.915215,598.906207 C360.003184,598.906207 367.368682,591.540711 367.368682,582.45274 L367.368682,550.554865 C389.00242,544.731881 409.684943,536.158082 429.120601,524.962012 L451.641284,547.482695 C454.726309,550.567721 458.910375,552.303046 463.280827,552.303046 C467.638424,552.303046 471.828917,550.567721 474.913942,547.476269 L547.630554,474.708238 C554.051263,468.281103 554.051263,457.862716 547.630554,451.442007 L525.135581,428.947032 C536.33165,409.511374 544.905448,388.828851 550.728434,367.195113 L582.504193,367.195113 C591.592162,367.195113 598.95766,359.829615 598.95766,350.741646 L598.95766,247.862485 C598.95766,238.774516 591.592162,231.409018 582.504193,231.409018 L550.722007,231.409018 C544.899022,209.781707 536.33165,189.099186 525.135581,169.663527 L547.508439,147.290667 C550.593465,144.205642 552.32879,140.015149 552.32879,135.651124 C552.322364,131.2871 550.587038,127.096608 547.502013,124.011583 L474.727555,51.2949691 C468.306847,44.8742618 457.88846,44.8742618 451.461324,51.3013975 L429.120601,73.6485477 C409.684943,62.4524766 389.00242,53.8786785 367.368682,48.0556928 L367.368682,16.4534672 C367.368682,7.36549662 360.003184,0 350.915215,0 L248.036054,0 C238.954512,0 231.582587,7.36549662 231.582587,16.4534672 L231.582587,48.0621211 C209.955276,53.8786785 189.272752,62.4524766 169.837094,73.6485477 L147.489944,51.3013975 C141.069235,44.8806886 130.650849,44.8742618 124.223713,51.2949691 L51.4556826,124.018009 C48.3642307,127.103034 46.6289049,131.2871 46.6289049,135.651124 C46.6289049,140.015149 48.3642307,144.205642 51.4492558,147.290667 L73.8221146,169.663527 C62.6260451,189.099186 54.052247,209.77528 48.2292613,231.409018 L16.5113465,231.409018 C7.42337755,231.409018 0.0578792862,238.774516 0.0578792862,247.856059 L1.76893223e-05,350.735219 C-0.0063912475,355.099243 1.72893455,359.289737 4.81395966,362.374762 C7.89898476,365.459787 12.0830505,367.195113 16.4535027,367.195113 L48.2292613,367.195113 C54.052247,388.828851 62.6260451,409.511374 73.8221146,428.947032 L51.3271415,451.442007 C44.9064326,457.862716 44.9000059,468.281103 51.3271415,474.708238 L124.043753,547.476269 C127.128778,550.561294 131.312844,552.303046 135.676868,552.303046 L135.683296,552.303046 C140.04732,552.303046 144.231386,550.567721 147.316411,547.482695 L169.830668,524.962012 C189.272752,536.158082 209.955276,544.731881 231.582587,550.554865 L231.582587,582.45274 Z M176.283512,490.358314 C169.772824,486.14854 161.205452,487.061194 155.716678,492.54354 L135.683296,512.576921 L86.2264872,463.08155 L106.240588,443.061022 C111.722935,437.578676 112.635587,429.011305 108.425813,422.500615 C93.5084315,399.414344 83.0193461,374.110711 77.2606326,347.283846 C75.6281409,339.706255 68.9310648,334.288179 61.1735117,334.288179 L32.9133967,334.288179 L32.9519603,264.315953 L61.1735117,264.315953 C68.9310648,264.315953 75.6281409,258.904305 77.2606326,251.320285 C83.0193461,224.499847 93.5084315,199.196214 108.425813,176.109943 C112.635587,169.599255 111.722935,161.031884 106.240588,155.549536 L86.3550299,135.657552 L135.850401,86.2007432 L155.716678,106.073447 C161.205452,111.555793 169.766395,112.462019 176.283512,108.258673 C199.363356,93.3412913 224.666989,82.8522059 251.493854,77.0934924 C259.071445,75.4609991 264.489521,68.7574962 264.489521,61.0063715 L264.489521,32.9069345 L334.461747,32.9069345 L334.461747,60.9999447 C334.461747,68.7574962 339.873395,75.4609991 347.457415,77.087064 C374.277853,82.8522059 399.587912,93.3348629 422.667757,108.252246 C429.178445,112.462019 437.745816,111.555793 443.228164,106.06702 L463.100866,86.2007432 L512.596239,135.657552 L492.71068,155.543109 C487.221907,161.031884 486.315681,169.599255 490.525454,176.109943 C505.442837,199.196214 515.925494,224.499847 521.690636,251.320285 C523.316701,258.904305 530.020204,264.315953 537.777755,264.315953 L566.050725,264.315953 L566.050725,334.288179 L537.777755,334.288179 C530.020204,334.288179 523.323128,339.706255 521.690636,347.283846 C515.931922,374.104284 505.442837,399.414344 490.525454,422.494188 C486.315681,429.011305 487.228334,437.578676 492.71068,443.061022 L512.724781,463.075122 L463.267972,512.570495 L443.234591,492.54354 C437.745816,487.054765 429.178445,486.14854 422.667757,490.358314 C399.581486,505.275695 374.277853,515.758354 347.457415,521.523494 C339.873395,523.155987 334.461747,529.853062 334.461747,537.610615 L334.461747,565.999273 L264.489521,565.999273 L264.489521,537.610615 C264.489521,529.859489 259.071445,523.155987 251.493854,521.523494 C224.673416,515.764781 199.369783,505.275695 176.283512,490.358314 L176.283512,490.358314 Z"/>
            <path d="M435.432047,299.453104 C435.432047,224.486994 374.444958,163.499904 299.478848,163.499904 C224.512738,163.499904 163.525648,224.486994 163.525648,299.453104 C163.525648,374.419214 224.512738,435.406303 299.478848,435.406303 C374.444958,435.406303 435.432047,374.419214 435.432047,299.453104 Z M196.432582,299.453104 C196.432582,242.630798 242.656542,196.406838 299.478848,196.406838 C356.301153,196.406838 402.525113,242.637225 402.525113,299.453104 C402.525113,356.268983 356.301153,402.499369 299.478848,402.499369 C242.656542,402.499369 196.432582,356.275409 196.432582,299.453104 Z"/>
          </g>
        </g>
      </g>
    </g>
  </g>
</svg>
